# xmcd
#
# Track frame offsets:
#	150
#	21347
#	36700
#	55592
#	72692
#	85185
#	94130
#	108235
#	125192
#	135335
#	148297
#	160537
#	172225
#	187142
#	203959
#	217412
#	233487
#	245270
#	257190
#	271267
#	283277
#	297760
#	315452
#	324925
#	335994
#
# Disc length: 4666
#
# Revision: 3
# Processed by: cddbd v1.5.1PL0 Copyright (c) Steve Scherf et al.
# Submitted via: CedeCatalogueitor 2.5 http://usuarios.lycos.es/kakasboy
# Normalized: r1:DSETVAR1,TDELIM( - ),TSWAP
#
DISCID=95123819
DTITLE=Various Artist - Las 100 Mejores Canciones Del Country CD-1
DYEAR=1996
DGENRE=Country
TTITLE0=Willie Nelson and Carlos Santana - They All Went To Mexico
TTITLE1=Hal Ketchum - Sure Love
TTITLE2=Hank Williams Jr. - A Country Boy Can Survive
TTITLE3=Dolly Parton - Silver And Gold
TTITLE4=Lynn Anderson - Rose Garden
TTITLE5=Frankie Laine - Rawhide
TTITLE6=The Bellamy Brothers - If I Said You Had A Beautiful Body
TTITLE7=John Denver - Calypso
TTITLE8=Buck Owens - Rolling In My Sweet Baby Arms
TTITLE9=The Desert Rose Band - She Don't Love Nobody
TTITLE10=Ronnie McDowell and Bobby Vinton - Blue Velvet
TTITLE11=Marie Osmond - Paper Roses
TTITLE12=Maureen McGovern - Can You Read My Mind
TTITLE13=Sawyer Brown - I Don't Believe In Goodbye
TTITLE14=Six Shooter - Baby Come Back
TTITLE15=Charlie Daniels Band - The Devil Went Down To Georgia
TTITLE16=Charlie Rich - The Most Beautiful Girl In The World
TTITLE17=Tammy Wynette and George Jones - Cryn' Time
TTITLE18=Bill Meddley - Don't Let Go
TTITLE19=Hank Thompson - The Wild Side Of Life
TTITLE20=Boy Howdy - True To His Word
TTITLE21=Merle Haggard - Ramblin' Fever
TTITLE22=Bill Monroe - I Saw The Light
TTITLE23=Jim Croce - I'll Have To Say I Love You In A Song
TTITLE24=Glen Campbell - Rhinestone Cowboy (Live)
EXTD=
EXTT0=
EXTT1=
EXTT2=
EXTT3=
EXTT4=
EXTT5=
EXTT6=
EXTT7=
EXTT8=
EXTT9=
EXTT10=
EXTT11=
EXTT12=
EXTT13=
EXTT14=
EXTT15=
EXTT16=
EXTT17=
EXTT18=
EXTT19=
EXTT20=
EXTT21=
EXTT22=
EXTT23=
EXTT24=
PLAYORDER=
